<?xml version="1.0" encoding="utf-8"?>
<!-- Generator: Adobe Illustrator 24.0.0, SVG Export Plug-In . SVG Version: 6.00 Build 0)  -->
<svg version="1.1" id="Layer_1" xmlns="http://www.w3.org/2000/svg" xmlns:xlink="http://www.w3.org/1999/xlink" x="0px" y="0px"
	 viewBox="0 0 40 30" style="enable-background:new 0 0 40 30;" xml:space="preserve">
<style type="text/css">
	.st0{fill:#303031;}
	.st1{fill:#B41A1E;}
</style>
<g>
	<path class="st0" d="M38.97,1.27c-1.17,0.37-1.84,1.3-2.05,2.51c-0.12,0.68-0.12,1.39-0.5,2c-0.3,0.48-0.78,0.81-1.29,1.03
		c-1.01,0.43-2.5,0.37-3.15,1.37c-0.22,0.34-0.34,0.73-0.41,1.13c1.79,1.24,4.58,0.8,6.55-1.15C40.25,6.04,40.62,2.99,38.97,1.27z"
		/>
	<path class="st0" d="M34.21,6.16c0.75-0.22,1.38-0.54,1.61-1.33c0.2-0.71,0.18-1.44,0.44-2.14c0.36-0.94,1-1.65,1.86-2.07
		c-1.79-0.99-4.39-0.48-6.25,1.36c-2.03,2-2.44,4.85-1.07,6.6c0.07-0.24,0.16-0.48,0.28-0.71C31.73,6.66,33.01,6.5,34.21,6.16z"/>
</g>
<g>
	<polygon class="st0" points="22.27,5.48 22.26,5.48 22.26,8.19 25.01,10 27.74,8.19 27.74,5.48 25.01,7.29 	"/>
	<polygon class="st0" points="30,3.31 24.99,0 20,3.31 25.01,6.61 	"/>
</g>
<g>
	<path class="st0" d="M3.86,28.18l-2.01-1.99l5.8-5.84c0.19-0.19,0.49-0.19,0.68,0l1.32,1.32c0.19,0.19,0.19,0.49,0,0.68L3.86,28.18
		z"/>
	<polygon class="st0" points="0.52,29.53 0.52,29.53 1.29,26.75 3.3,28.74 	"/>
</g>
<g>
	<ellipse class="st1" cx="15" cy="2.14" rx="2.27" ry="2.07"/>
	<path class="st1" d="M19.09,5.04h-2.76l-0.48,1.5l-0.39-1.5h-0.91l-0.39,1.5l-0.48-1.5h-2.76L10,10h10L19.09,5.04z M15,9.17
		l-0.53-1.65h1.06L15,9.17z"/>
</g>
<g>
	<ellipse class="st0" cx="5" cy="2.14" rx="2.27" ry="2.07"/>
	<path class="st0" d="M9.09,5.04H6.33l-0.48,1.5l-0.39-1.5H4.54l-0.39,1.5l-0.48-1.5H0.91L0,10h10L9.09,5.04z M5,9.17L4.47,7.52
		h1.06L5,9.17z"/>
</g>
<g>
	<rect x="10" y="22.31" class="st0" width="2" height="5.38"/>
	<polygon class="st0" points="13,22.31 13,27.69 20,30 20,27.69 20,22.31 20,20 	"/>
</g>
<path class="st0" d="M25.02,10c-2.75,0-4.98,1.71-4.98,3.82S24.63,20,25.02,20C25.4,20,30,15.94,30,13.82S27.77,10,25.02,10z
	 M25.02,15.29l-1.92-2.35h1.92h1.92L25.02,15.29z"/>
<path class="st0" d="M5.02,10.06c-2.75,0-4.98,1.71-4.98,3.82s4.6,6.18,4.98,6.18S10,15.99,10,13.88S7.77,10.06,5.02,10.06z
	 M5.02,15.35L3.1,13h1.92h1.92L5.02,15.35z"/>
<path class="st0" d="M25.02,20.06c-2.75,0-4.98,1.71-4.98,3.82s4.6,6.18,4.98,6.18c0.38,0,4.98-4.06,4.98-6.18
	S27.77,20.06,25.02,20.06z M25.02,25.35L23.1,23h1.92h1.92L25.02,25.35z"/>
<path class="st0" d="M35.02,20.06c-2.75,0-4.98,1.71-4.98,3.82s4.6,6.18,4.98,6.18c0.38,0,4.98-4.06,4.98-6.18
	S37.77,20.06,35.02,20.06z M35.02,25.35L33.1,23h1.92h1.92L35.02,25.35z"/>
<g>
	<path class="st0" d="M36.47,16.82c0,0.48-0.3,0.88-0.67,0.88h-1.6c-0.37,0-0.67-0.39-0.67-0.88v-0.66H30v2.68
		c0,0.65,0.4,1.17,0.89,1.17h8.21C39.6,20,40,19.48,40,18.83v-2.68h-3.53V16.82z"/>
	<rect x="34.71" y="16.15" class="st0" width="0.59" height="0.77"/>
	<path class="st0" d="M39.11,11.54h-2.05V10h-4.12v1.54h-2.05c-0.49,0-0.89,0.52-0.89,1.17v2.68h10v-2.68
		C40,12.06,39.6,11.54,39.11,11.54z M36.47,11.54h-2.94v-0.77h2.94V11.54z"/>
</g>
<g>
	<rect x="15.38" y="17.06" class="st1" width="4.62" height="2.94"/>
	<rect x="10" y="17.06" class="st1" width="4.62" height="2.94"/>
	<path class="st1" d="M20,11.76c0-0.97-1.03-1.76-2.31-1.76c-1.27,0-2.31,0.79-2.31,1.76v0.59h-0.77v-0.59
		c0-0.97-1.03-1.76-2.31-1.76S10,10.79,10,11.76s1.03,1.76,2.31,1.76H10v2.94h4.62v-2.94h0.77v2.94H20v-2.94h-2.31
		C18.97,13.53,20,12.74,20,11.76z M10.77,11.76c0-0.65,0.69-1.18,1.54-1.18s1.54,0.53,1.54,1.18v0.59v0.59h-1.54
		C11.46,12.94,10.77,12.41,10.77,11.76z M16.15,11.76c0-0.65,0.69-1.18,1.54-1.18c0.85,0,1.54,0.53,1.54,1.18
		c0,0.65-0.69,1.18-1.54,1.18h-1.54v-0.59V11.76z"/>
</g>
</svg>
